<svg id="Calque_1" data-name="Calque 1" xmlns="http://www.w3.org/2000/svg" viewBox="0 0 640 480"><defs><style>.cls-1{fill:#fff;}.cls-2{fill:#9e7830;}.cls-3{fill:#e5dba7;}.cls-4{fill:#7f6127;}.cls-5{fill:#bcb383;}.cls-6{fill:#3c3119;}</style></defs><path class="cls-1" d="M-127.46-56.44H716.11V521.91H-127.46Zm531.16,364c-1.57,0-3.14.05-4.71.05H299.48q-.06-5-.13-10.08,14.34,0,28.66,0a5.28,5.28,0,0,0,3.19-.89A54.6,54.6,0,0,0,336,293c6.81-6.1,11.79-13.55,15.75-21.67,6.61-13.58,9.88-28.11,10.89-43.08a137.07,137.07,0,0,0-3.9-44,111.85,111.85,0,0,0-12.84-31,55.53,55.53,0,0,0-9.66-12.75,7.3,7.3,0,0,0-5.39-2.14c-10.53.06-21.05,0-31.57,0l.13-12.78c4.82,0,9.65-.09,14.47.05a11.13,11.13,0,0,0,6.34-1.82c11.92-7.32,17.87-18.26,18.89-31.94a41.41,41.41,0,0,0-5.35-23.59c-2.66-5.46-6.85-9.66-11.34-13.58a8.35,8.35,0,0,0-5.9-2c-5.72.12-11.44,0-17.17,0,0-2.24.09-4.48,0-6.71-.06-2-.65-2.55-2.65-2.64-1.79-.08-3.59-.07-5.38,0-2,.09-2.56.58-2.62,2.63-.08,2.23,0,4.47,0,6.71l-33.61.13c10.25,10.62,12.79,23.22,13.21,36.38.42,13.41-3.42,25.58-13,36.25H286l2.68.08.16,12.75c-3.15,0-6.3.06-9.44,0-2.34-.07-4.68-.91-7-.43a42,42,0,0,1-8.38.45c-7,0-13.92,0-20.88,0-1,0-2.17-.24-2.7.89s.53,1.58,1,2.29a139.73,139.73,0,0,1,8.84,13.88,156,156,0,0,1,11,27.39A178.2,178.2,0,0,1,267.65,217c.61,6-.1,12.14-.82,18.11a134.07,134.07,0,0,1-6.16,26.4A124.79,124.79,0,0,1,245,293c-.64.92-1.32,1.82-1.87,2.79s-.2,1.54.83,1.69a15.16,15.16,0,0,0,2,.08c14,.15,28-.39,42.05.59,0,3.18.07,6.36.11,9.53a13.4,13.4,0,0,1-2,.25q-31.72-.15-63.46-.35a51.34,51.34,0,0,1-9.28-16.82,3.71,3.71,0,0,0-2.29-2.71c-1-1-2.28-.61-3.47-.62-8.46-.07-16.92.25-25.37-.18q0-12.39-.05-24.78c8.54-.05,17.07-.16,25.61-.11a10.69,10.69,0,0,0,6-1.74,53,53,0,0,0,15-14.8c11-15.71,14.92-33.59,15.89-52.34a102.49,102.49,0,0,0-.4-11.07,105.09,105.09,0,0,0-3.81-22.47c-1.45-5.15-2.77-10.41-5.78-15a4.68,4.68,0,0,0-.19-1.32A79.09,79.09,0,0,0,218,120.08a6.9,6.9,0,0,0-5.16-2c-10.22.07-20.44,0-30.66,0,0-2.12.05-4.25,0-6.37a2.14,2.14,0,0,0-2.51-2.4c-1.79.07-3.58,0-5.37,0-2.32.07-2.9.64-3,3-.06,1.9,0,3.8,0,5.7-3.91.21-7.82.55-11.74.59-11.46.1-22.92.07-34.38.11-.75,0-1.69-.3-2.2.43-.66,1,.26,1.64.72,2.36a8.8,8.8,0,0,0,.72,1.14c4.23,4.57,6.29,10.27,8.37,16,6.36,17.36,7.92,35.48,8.75,53.74.09,2.06-.71,4-.64,6a101.48,101.48,0,0,1-2.09,22c-1.77,9.5-4.31,18.77-8.79,27.42C128,252,126,256.11,123.5,260c-.91,1.43-.62,2,.93,2.32a7.44,7.44,0,0,0,1.34.05l44.83,0a.89.89,0,0,0,.58.1l-.13,24.86c-1.93.39-4-.42-5.85.59h-3.33a2.59,2.59,0,0,0-1.9-.48l-39.45-.06a2.18,2.18,0,0,0-1.86.54c-.91.94-.51,2.12-.52,3.19q0,11.39,0,22.76c0,6.25.09,12.49.14,18.74-1.1,5.42,1.22,6.81,6.68,7.14h.33c2.73.07,2.73.07,3.1,2.93-.45,1.58.24,3.1.4,4.62a66.6,66.6,0,0,0,9.87,29.28c8.29,13.07,20.48,20.93,34.69,26.12,7.08,3.53,14.41,6.2,22.45,6.08,25.73-.41,51.47-.35,77.2-.5,47.65-.29,95.3-.09,143,0a22.48,22.48,0,0,0,8.2-1.46A85.72,85.72,0,0,0,453,388.05a110.76,110.76,0,0,0,18.25-23.65,46,46,0,0,1,9.12-10.7,66.75,66.75,0,0,0,11.14-13c6.54-9.87,9.64-20.91,10.68-32.56.19-2.2.93-3.08,2.88-3.71,12.37-4.05,24.71-8.2,37.07-12.28,6.17-2,12.38-4,18.55-6,2-.67,4.16-1.32,4.15-4.09,0-.56.15-1.12.15-1.67,0-2.87-.21-3.16-3.06-3s-5.57.5-8.34.83c-8.44,1-16.88,2.12-25.32,3.16-19.89,2.46-39.66,5.7-59.44,8.88a5.94,5.94,0,0,0-3.11,1.16c-1.87,1.6-3.84,3.09-5.7,4.69-4.08,3.51-8.13,7-12.47,10.23a5.29,5.29,0,0,1-3.31,1.38c-9.65,0-19.29,0-28.94,0V297.51c8.65,0,17.29,0,25.93,0a5.8,5.8,0,0,0,3.51-.92,48.71,48.71,0,0,0,5.88-4.47,71.63,71.63,0,0,0,14.55-20.45c7.91-16.08,10.86-33.31,11.49-51a129.51,129.51,0,0,0-1.15-19.07A122,122,0,0,0,466.2,166c-2.29-5.22-4.6-10.47-8.28-14.94a5.08,5.08,0,0,0-1.27-2.68,75.23,75.23,0,0,0-7.32-8.24,5.8,5.8,0,0,0-4.44-1.8c-10.06.06-20.11,0-30.16,0,0-2.68.15-5.36.1-8.05-.05-2-.61-2.52-2.64-2.61-1.79-.08-3.59-.07-5.37,0-2.1.09-2.72.7-2.76,2.91-.05,2.57.07,5.14.11,7.71-6.17.35-12.31-.92-18.47-.49-5.37.38-10.73.49-16.11.49-4,0-8.09,0-12.13,0-1.07,0-2.48-.5-3.11.61-.72,1.27.47,2.29,1.18,3.24a113.38,113.38,0,0,1,13.46,24,165.88,165.88,0,0,1,9.3,29.76c1.16,5.47,1.72,11,2.34,16.56a91.19,91.19,0,0,1,.19,18.46,122.92,122.92,0,0,1-4.56,24,130.35,130.35,0,0,1-10.64,26.4c-2.67,4.81-5.55,9.47-8.54,14.08-.93,1.44-.68,1.92,1,2.1a23.19,23.19,0,0,0,2.36,0c9.65,0,19.31,0,29,0a48.82,48.82,0,0,1,6,.4,20.54,20.54,0,0,0,8-.23.35.35,0,0,0,.33-.2l.25.64Z"/><path class="cls-2" d="M222.66,307.56q31.72.18,63.46.35a13.4,13.4,0,0,0,2-.25,5.65,5.65,0,0,0,3.16.63c2.73,0,5.47,0,8.2,0l4.37,0,99.93,0c2.12,0,4.23.09,6.35,0,1.75,0,3.58.37,5.22-.63,9.65,0,19.29,0,28.94,0a5.29,5.29,0,0,0,3.31-1.38c4.34-3.19,8.39-6.72,12.47-10.23,1.86-1.6,3.83-3.09,5.7-4.69a5.94,5.94,0,0,1,3.11-1.16c19.78-3.18,39.55-6.42,59.44-8.88,8.44-1,16.88-2.12,25.32-3.16,2.77-.33,5.55-.7,8.34-.83s3,.17,3.06,3c0,.55-.1,1.11-.15,1.67-6.74,2.06-13.47,4.14-20.22,6.18-5.25,1.58-10.55,3-15.76,4.67-9.38,3-18.82,5.8-28.29,8.5a3.77,3.77,0,0,0-3,3.49A69.17,69.17,0,0,1,493,321.65a107.1,107.1,0,0,1-14.24,22.71c-.41.52-.8,1.41-1.94,1,.44-3,1.22-5.92,1.26-8.89.15-10.89.07-21.79.05-32.69,0-.86.22-1.84-.79-2.37a1.35,1.35,0,0,0-1,1.22c-.56,3.52-1.29,7-1.51,10.58-.24,3.91-.79,7.76-1.33,11.63a139,139,0,0,1-6.77,27.28,59,59,0,0,1-8.08,15.78c-4.45,6-10,10.88-15.74,15.57a128.05,128.05,0,0,1-27.4,16.86,11.81,11.81,0,0,1-4.52,1.05c-5.62.28-11.18-.67-16.78-.68-26.63,0-53.26-.17-79.88,0s-53.44-.78-80.15.57c-11.64.59-23.3-.11-35,.53-8.59.47-17.22,1.1-25.86.87-14.21-5.19-26.4-13.05-34.69-26.12a66.6,66.6,0,0,1-9.87-29.28c-.16-1.52-.85-3-.4-4.62,3.31-2.89,7.29-2.72,11.34-2.71,22.55.06,45.1,0,67.66,0h2.36c1.34,0,2.5-.25,2.63-1.9a2.64,2.64,0,0,0-2.4-2.75,21.69,21.69,0,0,0-3-.07c-24.47,0-48.93,0-73.39,0-5.3,0-10.53.09-15.29-2.71,0-6.25-.12-12.49-.14-18.74q0-11.39,0-22.76c0-1.07-.39-2.25.52-3.19l13.53.2a15.31,15.31,0,0,0,12.16,5.33q31.62.12,63.25,0c2.64,0,4.14.72,5.1,3.21a30.36,30.36,0,0,0,4.92,8.35C218.91,306.52,220.25,308.11,222.66,307.56Zm192.78,8.83-11.67,0c-8.65,0-17.29-.05-25.93,0-4.59,0-4.1-.67-4.11,4.11,0,2.57,0,2.62,2.56,2.62,9.09,0,18.17-.07,27.26-.1,2.25.42,4.34-.89,6.6-.6a11.48,11.48,0,0,0,5.25-.67c8.61-.91,15-3,17-5.37Zm-127.7,7.31h11.91c8.75-.05,17.51-.09,26.26-.17,4.37,0,4,.75,4-4.22,0-2.65,0-2.66-2.87-2.68l-27.6-.24H287.94c-9.41,0-18.83.11-28.24-.2-4.39-.14-3.45.31-3.54,3.53,0,.45,0,.9,0,1.35,0,1,.43,1.35,1.4,1.4,4,.19,8,.49,12.06.65C275.66,323.36,281.7,323.51,287.74,323.7Zm63.92-.16c4.26,0,8.51,0,12.77,0,4.95,0,4.31.63,4.34-4.59,0-2.49,0-2.54-2.64-2.54q-13.62,0-27.23.16c-4.76.05-4.2-.75-4.33,4.67,0,1.75.54,2.37,2.29,2.34C341.79,323.49,346.72,323.54,351.66,323.54Zm-45.54,58.24c6.73-.24,12.43-4.95,12.72-12.25.26-6.62-6.37-12.81-12.79-12.64-6.65.18-13.09,6.5-12.57,12.88C294.1,377.35,299.89,381.52,306.12,381.78Zm42.38,0c6.39-.13,12.39-4.54,12.83-12.14.38-6.52-6.17-12.77-12.69-12.75s-13.07,6.29-12.66,12.77C336.44,376.89,341.85,381.39,348.5,381.78Zm-99-11.75c-.3,6.24,5.43,12.1,12.58,12.26,6.6.14,12.44-6,12.38-12.53a12.48,12.48,0,0,0-25,.27Zm-15.43-54-.13.7a39.45,39.45,0,0,0,17.48,5.08c0-1.52-.05-2.74,0-3.95s-.38-1.85-1.71-1.85C244.52,316.05,239.3,316,234.09,316Z"/><path class="cls-3" d="M288,298.13c-14-1-28-.44-42.05-.59a15.16,15.16,0,0,1-2-.08c-1-.15-1.32-.82-.83-1.69s1.23-1.87,1.87-2.79a124.79,124.79,0,0,0,15.71-31.48,134.07,134.07,0,0,0,6.16-26.4c.72-6,1.43-12.06.82-18.11a178.2,178.2,0,0,0-6.35-34.19,156,156,0,0,0-11-27.39,139.73,139.73,0,0,0-8.84-13.88c-.48-.71-1.51-1.27-1-2.29s1.71-.88,2.7-.89c7,0,13.92,0,20.88,0a42,42,0,0,0,8.38-.45c2.33-.48,4.67.36,7,.43,3.14.1,6.29,0,9.44,0l10.45,0c10.52,0,21,.06,31.57,0a7.3,7.3,0,0,1,5.39,2.14,55.53,55.53,0,0,1,9.66,12.75c-.94.8-.73,1.87-.47,2.8a51.4,51.4,0,0,1,1.06,8.62,103.58,103.58,0,0,1,.79,17.07c-.12,1.72,1.06,3.3.54,5a20.49,20.49,0,0,0-.5,7,96.66,96.66,0,0,1-1.57,18A123.85,123.85,0,0,1,339.33,237a102.44,102.44,0,0,1-8.52,17.45,119.69,119.69,0,0,1-10.43,14,97.19,97.19,0,0,1-13,12.56c-7.1,5.84-15.05,10.48-23,15.05-.54.31-1.37.4-1.07,1.6h5A.91.91,0,0,1,288,298.13Z"/><path class="cls-3" d="M170.6,262.35l-44.83,0a7.44,7.44,0,0,1-1.34-.05c-1.55-.3-1.84-.89-.93-2.32,2.47-3.89,4.48-8,6.59-12.11,4.48-8.65,7-17.92,8.79-27.42a101.48,101.48,0,0,0,2.09-22c-.07-2,.73-3.94.64-6-.83-18.26-2.39-36.38-8.75-53.74-2.08-5.69-4.14-11.39-8.37-16a8.8,8.8,0,0,1-.72-1.14c-.46-.72-1.38-1.4-.72-2.36.51-.73,1.45-.43,2.2-.43,11.46,0,22.92,0,34.38-.11,3.92,0,7.83-.38,11.74-.59l10.83,0c10.22,0,20.44,0,30.66,0a6.9,6.9,0,0,1,5.16,2,79.09,79.09,0,0,1,16.5,23.54,4.68,4.68,0,0,1,.19,1.32c-.28,7,0,14.07-.5,21.13a134.82,134.82,0,0,1-3.62,23.1,92.78,92.78,0,0,1-24.88,44.54,100.39,100.39,0,0,1-19.79,15.41c-6.06,3.57-11.93,7.46-18.46,10.18a24,24,0,0,0-5.31,2.47c1.78,0,3-.07,4.24,0C167.8,261.9,169.31,261.29,170.6,262.35Z"/><path class="cls-3" d="M403.39,297.73a20.54,20.54,0,0,1-8,.23,48.82,48.82,0,0,0-6-.4c-9.65,0-19.31,0-29,0a23.19,23.19,0,0,1-2.36,0c-1.65-.18-1.9-.66-1-2.1,3-4.61,5.87-9.27,8.54-14.08a130.35,130.35,0,0,0,10.64-26.4,122.92,122.92,0,0,0,4.56-24,91.19,91.19,0,0,0-.19-18.46c-.62-5.55-1.18-11.09-2.34-16.56a165.88,165.88,0,0,0-9.3-29.76,113.38,113.38,0,0,0-13.46-24c-.71-1-1.9-2-1.18-3.24.63-1.11,2-.59,3.11-.61,4-.05,8.09,0,12.13,0,5.38,0,10.74-.11,16.11-.49,6.16-.43,12.3.84,18.47.49l10.56,0c10,0,20.1,0,30.16,0a5.8,5.8,0,0,1,4.44,1.8,75.23,75.23,0,0,1,7.32,8.24,5.08,5.08,0,0,1,1.27,2.68c.5,2.65.36,5.38.83,8a147.87,147.87,0,0,1,1.7,19,157.31,157.31,0,0,1-.35,20.81,181.08,181.08,0,0,1-4.24,26.74,99.79,99.79,0,0,1-8.47,22.58,92.32,92.32,0,0,1-11.7,17.57,126.27,126.27,0,0,1-14,14.06A122.94,122.94,0,0,1,402.3,293c-2.22,1.26-4.31,2.76-6.79,4.35C398.47,297.68,401,297.17,403.39,297.73Z"/><path class="cls-3" d="M299.38,52.74c5.73,0,11.45.09,17.17,0a8.35,8.35,0,0,1,5.9,2c4.49,3.92,8.68,8.12,11.34,13.58-1.25.1-1.36,1-1.29,1.94a23.66,23.66,0,0,1-.71,6c-1.19,6.41-2.91,12.61-6.24,18.32a56.9,56.9,0,0,1-14.73,17.26c-6.26,4.71-12.51,9.48-20.22,11.73a16.34,16.34,0,0,0-4.58,2H255.38c9.54-10.67,13.38-22.84,13-36.25-.42-13.16-3-25.76-13.21-36.38l33.61-.13Z"/><path class="cls-4" d="M173.34,402.68c8.64.23,17.27-.4,25.86-.87,11.68-.64,23.34.06,35-.53,26.71-1.35,53.43-.37,80.15-.57s53.25-.07,79.88,0c5.6,0,11.16,1,16.78.68a11.81,11.81,0,0,0,4.52-1.05,128.05,128.05,0,0,0,27.4-16.86c5.72-4.69,11.29-9.59,15.74-15.57a59,59,0,0,0,8.08-15.78,139,139,0,0,0,6.77-27.28c.54-3.87,1.09-7.72,1.33-11.63.22-3.54.95-7.06,1.51-10.58a1.35,1.35,0,0,1,1-1.22c1,.53.79,1.51.79,2.37,0,10.9.1,21.8-.05,32.69,0,3-.82,5.92-1.26,8.89,1.14.43,1.53-.46,1.94-1A107.1,107.1,0,0,0,493,321.65a69.17,69.17,0,0,0,4.62-16.78,3.77,3.77,0,0,1,3-3.49c9.47-2.7,18.91-5.5,28.29-8.5,5.21-1.67,10.51-3.09,15.76-4.67,6.75-2,13.48-4.12,20.22-6.18,0,2.77-2.13,3.42-4.15,4.09-6.17,2-12.38,4-18.55,6-12.36,4.08-24.7,8.23-37.07,12.28-2,.63-2.69,1.51-2.88,3.71-1,11.65-4.14,22.69-10.68,32.56a66.75,66.75,0,0,1-11.14,13,46,46,0,0,0-9.12,10.7A110.76,110.76,0,0,1,453,388.05a85.72,85.72,0,0,1-28.89,18.71,22.48,22.48,0,0,1-8.2,1.46c-47.65-.05-95.3-.25-142.95,0-25.73.15-51.47.09-77.2.5C187.75,408.88,180.42,406.21,173.34,402.68Z"/><path class="cls-5" d="M403.39,297.73c-2.43-.56-4.92-.05-7.88-.38,2.48-1.59,4.57-3.09,6.79-4.35a122.94,122.94,0,0,0,19.41-13.21,126.27,126.27,0,0,0,14-14.06,92.32,92.32,0,0,0,11.7-17.57,99.79,99.79,0,0,0,8.47-22.58,181.08,181.08,0,0,0,4.24-26.74,157.31,157.31,0,0,0,.35-20.81,147.87,147.87,0,0,0-1.7-19c-.47-2.6-.33-5.33-.83-8,3.68,4.47,6,9.72,8.28,14.94a122,122,0,0,1,9.35,35.59,129.51,129.51,0,0,1,1.15,19.07c-.63,17.73-3.58,35-11.49,51a71.63,71.63,0,0,1-14.55,20.45,48.71,48.71,0,0,1-5.88,4.47,5.8,5.8,0,0,1-3.51.92c-8.64,0-17.28,0-25.93,0l-.64.23c-3.65-.51-7.32-.1-11-.21A.35.35,0,0,1,403.39,297.73Z"/><path class="cls-5" d="M288.25,297.57h-5c-.3-1.2.53-1.29,1.07-1.6,7.95-4.57,15.9-9.21,23-15.05a97.19,97.19,0,0,0,13-12.56,119.69,119.69,0,0,0,10.43-14A102.44,102.44,0,0,0,339.33,237a123.85,123.85,0,0,0,6.45-25.27,96.66,96.66,0,0,0,1.57-18,20.49,20.49,0,0,1,.5-7c.52-1.66-.66-3.24-.54-5a103.58,103.58,0,0,0-.79-17.07,51.4,51.4,0,0,0-1.06-8.62c-.26-.93-.47-2,.47-2.8a111.85,111.85,0,0,1,12.84,31,137.07,137.07,0,0,1,3.9,44c-1,15-4.28,29.5-10.89,43.08-4,8.12-8.94,15.57-15.75,21.67a54.6,54.6,0,0,1-4.83,3.65,5.28,5.28,0,0,1-3.19.89q-14.33-.06-28.66,0Z"/><path class="cls-5" d="M170.6,262.35c-1.29-1.06-2.8-.45-4.21-.56-1.23-.09-2.46,0-4.24,0a24,24,0,0,1,5.31-2.47c6.53-2.72,12.4-6.61,18.46-10.18a100.39,100.39,0,0,0,19.79-15.41,92.78,92.78,0,0,0,24.88-44.54,134.82,134.82,0,0,0,3.62-23.1c.49-7.06.22-14.09.5-21.13,3,4.57,4.33,9.83,5.78,15a105.09,105.09,0,0,1,3.81,22.47,102.49,102.49,0,0,1,.4,11.07c-1,18.75-4.89,36.63-15.89,52.34a53,53,0,0,1-15,14.8,10.69,10.69,0,0,1-6,1.74c-8.54,0-17.07.06-25.61.11a92.08,92.08,0,0,0-11,0A.89.89,0,0,1,170.6,262.35Z"/><path class="cls-5" d="M286,125.49a16.34,16.34,0,0,1,4.58-2c7.71-2.25,14-7,20.22-11.73a56.9,56.9,0,0,0,14.73-17.26c3.33-5.71,5.05-11.91,6.24-18.32a23.66,23.66,0,0,0,.71-6c-.07-.94,0-1.84,1.29-1.94a41.41,41.41,0,0,1,5.35,23.59c-1,13.68-7,24.62-18.89,31.94a11.13,11.13,0,0,1-6.34,1.82c-4.82-.14-9.65,0-14.47-.05H288.7Z"/><path class="cls-4" d="M171.18,262.45a92.08,92.08,0,0,1,11,0q0,12.39.05,24.78c.63,1.47,1.94.83,2.93.83,8.64,0,17.28,0,25.91,0a3.71,3.71,0,0,1,2.29,2.71,51.34,51.34,0,0,0,9.28,16.82c-2.41.55-3.75-1-5-2.6a30.36,30.36,0,0,1-4.92-8.35c-1-2.49-2.46-3.22-5.1-3.21q-31.64.17-63.25,0a15.31,15.31,0,0,1-12.16-5.33c5.34,0,10.68,0,16-.08,4.55,0,9.11.31,13.66-.12h3.33c2,0,4,.89,5.85-.59Z"/><path class="cls-4" d="M118.27,332.59c4.76,2.8,10,2.73,15.29,2.71,24.46-.08,48.92,0,73.39,0a21.69,21.69,0,0,1,3,.07,2.64,2.64,0,0,1,2.4,2.75c-.13,1.65-1.29,1.91-2.63,1.9h-2.36c-22.56,0-45.11,0-67.66,0-4.05,0-8-.18-11.34,2.71-.37-2.86-.37-2.86-3.1-2.93H125C119.49,339.4,117.17,338,118.27,332.59Z"/><path class="cls-4" d="M288.7,125.57h10.74q-.07,6.39-.13,12.78l-10.45,0Q288.77,131.95,288.7,125.57Z"/><path class="cls-4" d="M288.25,297.57l11.1-.06q.07,5,.13,10.08l0,.68c-2.73,0-5.47,0-8.2,0a5.65,5.65,0,0,1-3.16-.63c0-3.17-.07-6.35-.11-9.53A.91.91,0,0,0,288.25,297.57Z"/><path class="cls-4" d="M414.7,297.74l.64-.23c0,3.38,0,6.75,0,10.13-1.64,1-3.47.59-5.22.63-2.12,0-4.23,0-6.35,0l-.06-.69.27-9.36C407.54,297.92,411.16,298.71,414.7,297.74Z"/><path class="cls-4" d="M414.73,138.36l-10.56,0c0-2.57-.16-5.14-.11-7.71,0-2.21.66-2.82,2.76-2.91,1.78-.07,3.58-.08,5.37,0,2,.09,2.59.6,2.64,2.61C414.88,133,414.77,135.68,414.73,138.36Z"/><path class="cls-4" d="M299.38,52.74H288.74c0-2.24-.08-4.48,0-6.71.06-2.05.58-2.54,2.62-2.63,1.79-.07,3.59-.08,5.38,0,2,.09,2.59.65,2.65,2.64C299.47,48.26,299.39,50.5,299.38,52.74Z"/><path class="cls-4" d="M182.2,118.16l-10.83,0c0-1.9-.06-3.8,0-5.7.07-2.38.65-3,3-3,1.79-.06,3.58,0,5.37,0a2.14,2.14,0,0,1,2.51,2.4C182.25,113.91,182.21,116,182.2,118.16Z"/><path class="cls-3" d="M403.7,307.53l.06.69-99.93,0-4.37,0c0-.23,0-.45,0-.68H399C400.56,307.58,402.13,307.55,403.7,307.53Z"/><path class="cls-3" d="M161.87,287.9c-4.55.43-9.11.07-13.66.12-5.34.05-10.68.06-16,.08l-13.53-.2a2.18,2.18,0,0,1,1.86-.54l39.45.06A2.59,2.59,0,0,1,161.87,287.9Z"/><path class="cls-5" d="M211.09,288c-8.63,0-17.27.06-25.91,0-1,0-2.3.64-2.93-.83,8.45.43,16.91.11,25.37.18C208.81,287.42,210.09,287,211.09,288Z"/><path class="cls-2" d="M414.7,297.74c-3.54,1-7.16.18-10.73.43-.08-.22-.16-.43-.25-.64C407.38,297.64,411.05,297.23,414.7,297.74Z"/><path class="cls-3" d="M171.05,287.31c-1.82,1.48-3.88.62-5.85.59C167.07,286.89,169.12,287.7,171.05,287.31Z"/><path class="cls-1" d="M351.66,323.54c-4.94,0-9.87-.05-14.8,0-1.75,0-2.33-.59-2.29-2.34.13-5.42-.43-4.62,4.33-4.67q13.62-.13,27.23-.16c2.59,0,2.65.05,2.64,2.54,0,5.22.61,4.56-4.34,4.59C360.17,323.56,355.92,323.54,351.66,323.54Z"/><path class="cls-4" d="M306.12,381.78c-6.23-.26-12-4.43-12.64-12-.52-6.38,5.92-12.7,12.57-12.88,6.42-.17,13.05,6,12.79,12.64C318.55,376.83,312.85,381.54,306.12,381.78Zm-.12-4a8.6,8.6,0,0,0,8.92-8.43c0-4.64-3.83-8.18-8.48-8.61-5-.45-9.12,4.42-9.09,8.35A8.49,8.49,0,0,0,306,377.79Z"/><path class="cls-4" d="M348.5,381.78c-6.65-.39-12.06-4.89-12.52-12.12-.41-6.48,6.12-12.75,12.66-12.77s13.07,6.23,12.69,12.75C360.89,377.24,354.89,381.65,348.5,381.78Zm.2-4a8.6,8.6,0,0,0,8.71-8.65c-.08-4.59-4-8-8.7-8.4-4.54-.39-8.91,4.33-8.91,8.57S344.2,378.59,348.7,377.79Z"/><path class="cls-4" d="M249.52,370a12.48,12.48,0,0,1,25-.27c.06,6.5-5.78,12.67-12.38,12.53C255,382.13,249.22,376.27,249.52,370Zm21-.42a8.67,8.67,0,0,0-8.6-8.73,8.77,8.77,0,1,0,.07,17.54A8.66,8.66,0,0,0,270.48,369.61Z"/><path class="cls-1" d="M299.45,316.39l27.6.24c2.83,0,2.87,0,2.87,2.68,0,5,.36,4.19-4,4.22-8.75.08-17.51.12-26.26.17C299,321.28,299.34,318.83,299.45,316.39Z"/><path class="cls-1" d="M287.74,323.7c-6-.19-12.08-.34-18.11-.58-4-.16-8-.46-12.06-.65-1-.05-1.44-.42-1.4-1.4,0-.45,0-.9,0-1.35.09-3.22-.85-3.67,3.54-3.53,9.41.31,18.83.16,28.24.2C288.05,318.83,288.34,321.28,287.74,323.7Z"/><path class="cls-1" d="M403.55,323c-9.09,0-18.17.08-27.26.1-2.52,0-2.57-.05-2.56-2.62,0-4.78-.48-4.09,4.11-4.11,8.64,0,17.28,0,25.93,0C403.79,318.63,404.1,320.84,403.55,323Z"/><path class="cls-4" d="M287.74,323.7c.6-2.42.31-4.87.2-7.31h11.51c-.11,2.44-.41,4.89.2,7.31Z"/><path class="cls-1" d="M234.09,316c5.21,0,10.43,0,15.65,0,1.33,0,1.77.61,1.71,1.85s0,2.43,0,3.95A39.45,39.45,0,0,1,234,316.74Z"/><path class="cls-4" d="M403.55,323c.55-2.19.24-4.4.22-6.6l11.67,0,0,5.37a11.48,11.48,0,0,1-5.25.67C407.89,322.14,405.8,323.45,403.55,323Z"/><path class="cls-1" d="M415.4,321.76l0-5.37h17C430.44,318.75,424,320.85,415.4,321.76Z"/><path class="cls-6" d="M306,377.79a8.49,8.49,0,0,1-8.65-8.69c0-3.93,4.11-8.8,9.09-8.35,4.65.43,8.51,4,8.48,8.61A8.6,8.6,0,0,1,306,377.79Z"/><path class="cls-6" d="M348.7,377.79c-4.5.8-8.9-4.23-8.9-8.48s4.37-9,8.91-8.57c4.71.42,8.62,3.81,8.7,8.4A8.6,8.6,0,0,1,348.7,377.79Z"/><path class="cls-6" d="M270.48,369.61a8.66,8.66,0,0,1-8.53,8.81,8.77,8.77,0,1,1-.07-17.54A8.67,8.67,0,0,1,270.48,369.61Z"/></svg>