<svg id="Calque_1" data-name="Calque 1" xmlns="http://www.w3.org/2000/svg" viewBox="0 0 640 480">
    <defs>
        <style>
            .cls-1{fill:#b59eda;}.cls-2{fill:#ffa9bd;}.cls-3{fill:#ffdd9f;}.cls-4{fill:#66ba92;}.cls-5{fill:#e69ed0;}.cls-6{fill:#ffc0aa;}.cls-7{fill:#c5db65;}.cls-8{fill:#82e1e8;}
        </style>
    </defs>
    <g id="_Répétition_radiale_">
        <path class="cls-1"
              d="M302.11,318.24l32.79-79.07,32.78,79.07c3.72,21.57,7.52,63.26-11.62,107.91a179.91,179.91,0,0,1-21.16,36.68A184.8,184.8,0,0,1,315,428.06C295.38,383.14,298.51,340.94,302.11,318.24Z"/>
    </g>
    <g id="_Répétition_radiale_2">
        <path class="cls-2"
              d="M256.84,207l79.07,32.79-79.07,32.78c-21.57,3.72-63.26,7.52-107.92-11.62a180.46,180.46,0,0,1-36.68-21.16A184.8,184.8,0,0,1,147,219.9C191.93,200.31,234.14,203.44,256.84,207Z"/>
    </g>
    <g id="_Répétition_radiale_3">
        <path class="cls-3"
              d="M368,161.76l-32.79,79.07-32.78-79.07c-3.72-21.57-7.52-63.26,11.62-107.91a179.91,179.91,0,0,1,21.16-36.68,184.8,184.8,0,0,1,19.93,34.77C374.76,96.86,371.63,139.06,368,161.76Z"/>
    </g>
    <g id="_Répétition_radiale_4">
        <path class="cls-4"
              d="M413.31,273l-79.07-32.79,79.07-32.78c21.57-3.72,63.26-7.52,107.92,11.62a180.46,180.46,0,0,1,36.68,21.16,184.8,184.8,0,0,1-34.77,19.93C478.22,279.69,436,276.56,413.31,273Z"/>
    </g>
    <g id="_Répétition_radiale_5">
        <path class="cls-5"
              d="M277.43,263.13l57.81-23.71-24.07,57.66c-9.25,13-28.88,36.45-61.85,49.53a132.51,132.51,0,0,1-29.88,7.92,135.11,135.11,0,0,1,7.75-28.21C240.36,293.06,263.82,273,277.43,263.13Z"/>
    </g>
    <g id="_Répétition_radiale_6">
        <path class="cls-6"
              d="M311.69,182.47l23.72,57.81-57.66-24.06c-13-9.26-36.45-28.88-49.53-61.85a131.46,131.46,0,0,1-7.92-29.88,134.43,134.43,0,0,1,28.21,7.74C281.77,145.4,301.87,168.87,311.69,182.47Z"/>
    </g>
    <g id="_Répétition_radiale_7">
        <path class="cls-7"
              d="M392.36,216.74l-57.81,23.71,24.06-57.66c9.25-13,28.88-36.45,61.85-49.52a132.05,132.05,0,0,1,29.88-7.93,134.43,134.43,0,0,1-7.74,28.21C429.43,186.81,406,206.92,392.36,216.74Z"/>
    </g>
    <g id="_Répétition_radiale_8">
        <path class="cls-8"
              d="M358.09,297.4l-23.71-57.81L392,263.66c13,9.25,36.45,28.87,49.52,61.85a132,132,0,0,1,7.93,29.87,134.5,134.5,0,0,1-28.22-7.74C388,334.47,367.91,311,358.09,297.4Z"/>
    </g>
</svg>